# 3ds Max Wavefront OBJ Exporter v0.97b - (c)2007 guruware
# File Created: 25.11.2017 09:24:57

#
# object Pyramid001
#

v  9.2341 18.2180 1.8406
v  -2.0551 0.0050 13.4085
v  20.5233 0.0050 13.4085
v  20.5233 0.0050 -9.7274
v  -2.0551 0.0050 -9.7274
v  9.2341 0.0050 1.8406
# 6 vertices

vn 0.0000 0.5361 0.8441
vn 0.8500 0.5268 -0.0000
vn 0.0000 0.5361 -0.8441
vn -0.8500 0.5268 -0.0000
vn 0.0000 -1.0000 -0.0000
# 5 vertex normals

vt 0.5000 1.0000 0.0000
vt 0.0000 0.0000 0.0000
vt 1.0000 0.0000 0.0000
vt 0.0120 0.0000 0.0000
vt 1.0120 0.0000 0.0000
vt 0.0000 1.0000 0.0000
vt 0.5000 0.5000 0.0000
vt 1.0000 1.0000 0.0000
# 8 texture coords

g Pyramid001
f 1/1/1 2/2/1 3/3/1 
f 1/1/2 3/4/2 4/5/2 
f 1/1/3 4/2/3 5/3/3 
f 1/1/4 5/4/4 2/5/4 
f 2/6/5 6/7/5 3/8/5 
f 3/8/5 6/7/5 4/3/5 
f 4/3/5 6/7/5 5/2/5 
f 5/2/5 6/7/5 2/6/5 
# 0 polygons - 8 triangles

